<svg width="168" height="231" viewBox="0 0 168 231" fill="none" xmlns="http://www.w3.org/2000/svg">
<rect x="0.5" y="0.5" width="167" height="167" rx="4.5" fill="white" stroke="url(#paint0_linear_152_57)"/>
<path d="M2.82031 189.547V194H1.32031V182.625H5.51562C6.76042 182.625 7.73438 182.943 8.4375 183.578C9.14583 184.214 9.5 185.055 9.5 186.102C9.5 187.206 9.15365 188.057 8.46094 188.656C7.77344 189.25 6.78646 189.547 5.5 189.547H2.82031ZM2.82031 188.32H5.51562C6.31771 188.32 6.93229 188.133 7.35938 187.758C7.78646 187.378 8 186.831 8 186.117C8 185.44 7.78646 184.898 7.35938 184.492C6.93229 184.086 6.34635 183.875 5.60156 183.859H2.82031V188.32ZM16.3125 194C16.2292 193.833 16.1615 193.536 16.1094 193.109C15.4375 193.807 14.6354 194.156 13.7031 194.156C12.8698 194.156 12.1849 193.922 11.6484 193.453C11.1172 192.979 10.8516 192.38 10.8516 191.656C10.8516 190.776 11.1849 190.094 11.8516 189.609C12.5234 189.12 13.4661 188.875 14.6797 188.875H16.0859V188.211C16.0859 187.706 15.9349 187.305 15.6328 187.008C15.3307 186.706 14.8854 186.555 14.2969 186.555C13.7812 186.555 13.349 186.685 13 186.945C12.651 187.206 12.4766 187.521 12.4766 187.891H11.0234C11.0234 187.469 11.1719 187.062 11.4688 186.672C11.7708 186.276 12.1771 185.964 12.6875 185.734C13.2031 185.505 13.7682 185.391 14.3828 185.391C15.3568 185.391 16.1198 185.635 16.6719 186.125C17.224 186.609 17.5104 187.279 17.5312 188.133V192.023C17.5312 192.799 17.6302 193.417 17.8281 193.875V194H16.3125ZM13.9141 192.898C14.3672 192.898 14.7969 192.781 15.2031 192.547C15.6094 192.312 15.9036 192.008 16.0859 191.633V189.898H14.9531C13.1823 189.898 12.2969 190.417 12.2969 191.453C12.2969 191.906 12.4479 192.26 12.75 192.516C13.0521 192.771 13.4401 192.898 13.9141 192.898ZM22.4375 191.883L24.4062 185.547H25.9531L22.5547 195.305C22.0286 196.711 21.1927 197.414 20.0469 197.414L19.7734 197.391L19.2344 197.289V196.117L19.625 196.148C20.1146 196.148 20.4948 196.049 20.7656 195.852C21.0417 195.654 21.2682 195.292 21.4453 194.766L21.7656 193.906L18.75 185.547H20.3281L22.4375 191.883ZM28.6094 185.547L28.6484 186.484C29.2682 185.755 30.1042 185.391 31.1562 185.391C32.3385 185.391 33.1432 185.844 33.5703 186.75C33.8516 186.344 34.2161 186.016 34.6641 185.766C35.1172 185.516 35.651 185.391 36.2656 185.391C38.1198 185.391 39.0625 186.372 39.0938 188.336V194H37.6484V188.422C37.6484 187.818 37.5104 187.367 37.2344 187.07C36.9583 186.768 36.4948 186.617 35.8438 186.617C35.3073 186.617 34.862 186.779 34.5078 187.102C34.1536 187.419 33.9479 187.849 33.8906 188.391V194H32.4375V188.461C32.4375 187.232 31.8359 186.617 30.6328 186.617C29.6849 186.617 29.0365 187.021 28.6875 187.828V194H27.2422V185.547H28.6094ZM44.7891 194.156C43.6432 194.156 42.7109 193.781 41.9922 193.031C41.2734 192.276 40.9141 191.268 40.9141 190.008V189.742C40.9141 188.904 41.0729 188.156 41.3906 187.5C41.7135 186.839 42.1615 186.323 42.7344 185.953C43.3125 185.578 43.9375 185.391 44.6094 185.391C45.7083 185.391 46.5625 185.753 47.1719 186.477C47.7812 187.201 48.0859 188.237 48.0859 189.586V190.188H42.3594C42.3802 191.021 42.6224 191.695 43.0859 192.211C43.5547 192.721 44.1484 192.977 44.8672 192.977C45.3776 192.977 45.8099 192.872 46.1641 192.664C46.5182 192.456 46.8281 192.18 47.0938 191.836L47.9766 192.523C47.2682 193.612 46.2057 194.156 44.7891 194.156ZM44.6094 186.578C44.026 186.578 43.5365 186.792 43.1406 187.219C42.7448 187.641 42.5 188.234 42.4062 189H46.6406V188.891C46.599 188.156 46.401 187.589 46.0469 187.188C45.6927 186.781 45.2135 186.578 44.6094 186.578ZM51.1328 185.547L51.1797 186.609C51.8255 185.797 52.6693 185.391 53.7109 185.391C55.4974 185.391 56.3984 186.398 56.4141 188.414V194H54.9688V188.406C54.9635 187.797 54.8229 187.346 54.5469 187.055C54.276 186.763 53.8516 186.617 53.2734 186.617C52.8047 186.617 52.3932 186.742 52.0391 186.992C51.6849 187.242 51.4089 187.57 51.2109 187.977V194H49.7656V185.547H51.1328ZM60.5547 183.5V185.547H62.1328V186.664H60.5547V191.906C60.5547 192.245 60.625 192.5 60.7656 192.672C60.9062 192.839 61.1458 192.922 61.4844 192.922C61.651 192.922 61.8802 192.891 62.1719 192.828V194C61.7917 194.104 61.4219 194.156 61.0625 194.156C60.4167 194.156 59.9297 193.961 59.6016 193.57C59.2734 193.18 59.1094 192.625 59.1094 191.906V186.664H57.5703V185.547H59.1094V183.5H60.5547ZM67.4531 189.703C67.4531 188.385 67.7578 187.339 68.3672 186.562C68.9766 185.781 69.7839 185.391 70.7891 185.391C71.8203 185.391 72.625 185.755 73.2031 186.484L73.2734 185.547H74.5938V193.797C74.5938 194.891 74.2682 195.753 73.6172 196.383C72.9714 197.013 72.1016 197.328 71.0078 197.328C70.3984 197.328 69.8021 197.198 69.2188 196.938C68.6354 196.677 68.1901 196.32 67.8828 195.867L68.6328 195C69.2526 195.766 70.0104 196.148 70.9062 196.148C71.6094 196.148 72.1562 195.951 72.5469 195.555C72.9427 195.159 73.1406 194.602 73.1406 193.883V193.156C72.5625 193.823 71.7734 194.156 70.7734 194.156C69.7839 194.156 68.9818 193.758 68.3672 192.961C67.7578 192.164 67.4531 191.078 67.4531 189.703ZM68.9062 189.867C68.9062 190.82 69.1016 191.57 69.4922 192.117C69.8828 192.659 70.4297 192.93 71.1328 192.93C72.0443 192.93 72.7135 192.516 73.1406 191.688V187.828C72.6979 187.021 72.0339 186.617 71.1484 186.617C70.4453 186.617 69.8958 186.891 69.5 187.438C69.1042 187.984 68.9062 188.794 68.9062 189.867ZM76.3984 189.695C76.3984 188.867 76.5599 188.122 76.8828 187.461C77.2109 186.799 77.6641 186.289 78.2422 185.93C78.8255 185.57 79.4896 185.391 80.2344 185.391C81.3854 185.391 82.3151 185.789 83.0234 186.586C83.737 187.383 84.0938 188.443 84.0938 189.766V189.867C84.0938 190.69 83.9349 191.43 83.6172 192.086C83.3047 192.737 82.8542 193.245 82.2656 193.609C81.6823 193.974 81.0104 194.156 80.25 194.156C79.1042 194.156 78.1745 193.758 77.4609 192.961C76.7526 192.164 76.3984 191.109 76.3984 189.797V189.695ZM77.8516 189.867C77.8516 190.805 78.0677 191.557 78.5 192.125C78.9375 192.693 79.5208 192.977 80.25 192.977C80.9844 192.977 81.5677 192.69 82 192.117C82.4323 191.539 82.6484 190.732 82.6484 189.695C82.6484 188.768 82.4271 188.018 81.9844 187.445C81.5469 186.867 80.9635 186.578 80.2344 186.578C79.5208 186.578 78.9453 186.862 78.5078 187.43C78.0703 187.997 77.8516 188.81 77.8516 189.867ZM89.4141 194.156C88.2682 194.156 87.3359 193.781 86.6172 193.031C85.8984 192.276 85.5391 191.268 85.5391 190.008V189.742C85.5391 188.904 85.6979 188.156 86.0156 187.5C86.3385 186.839 86.7865 186.323 87.3594 185.953C87.9375 185.578 88.5625 185.391 89.2344 185.391C90.3333 185.391 91.1875 185.753 91.7969 186.477C92.4062 187.201 92.7109 188.237 92.7109 189.586V190.188H86.9844C87.0052 191.021 87.2474 191.695 87.7109 192.211C88.1797 192.721 88.7734 192.977 89.4922 192.977C90.0026 192.977 90.4349 192.872 90.7891 192.664C91.1432 192.456 91.4531 192.18 91.7188 191.836L92.6016 192.523C91.8932 193.612 90.8307 194.156 89.4141 194.156ZM89.2344 186.578C88.651 186.578 88.1615 186.792 87.7656 187.219C87.3698 187.641 87.125 188.234 87.0312 189H91.2656V188.891C91.224 188.156 91.026 187.589 90.6719 187.188C90.3177 186.781 89.8385 186.578 89.2344 186.578ZM99.3125 191.758C99.3125 191.367 99.1641 191.065 98.8672 190.852C98.5755 190.633 98.0625 190.445 97.3281 190.289C96.599 190.133 96.0182 189.945 95.5859 189.727C95.1589 189.508 94.8411 189.247 94.6328 188.945C94.4297 188.643 94.3281 188.284 94.3281 187.867C94.3281 187.174 94.6198 186.589 95.2031 186.109C95.7917 185.63 96.5417 185.391 97.4531 185.391C98.4115 185.391 99.1875 185.638 99.7812 186.133C100.38 186.628 100.68 187.26 100.68 188.031H99.2266C99.2266 187.635 99.0573 187.294 98.7188 187.008C98.3854 186.721 97.9635 186.578 97.4531 186.578C96.9271 186.578 96.5156 186.693 96.2188 186.922C95.9219 187.151 95.7734 187.451 95.7734 187.82C95.7734 188.169 95.9115 188.432 96.1875 188.609C96.4635 188.786 96.9609 188.956 97.6797 189.117C98.4036 189.279 98.9896 189.471 99.4375 189.695C99.8854 189.919 100.216 190.19 100.43 190.508C100.648 190.82 100.758 191.203 100.758 191.656C100.758 192.411 100.456 193.018 99.8516 193.477C99.2474 193.93 98.4635 194.156 97.5 194.156C96.8229 194.156 96.224 194.036 95.7031 193.797C95.1823 193.557 94.7734 193.224 94.4766 192.797C94.1849 192.365 94.0391 191.898 94.0391 191.398H95.4844C95.5104 191.883 95.7031 192.268 96.0625 192.555C96.4271 192.836 96.9062 192.977 97.5 192.977C98.0469 192.977 98.4844 192.867 98.8125 192.648C99.1458 192.424 99.3125 192.128 99.3125 191.758ZM108.57 183.5V185.547H110.148V186.664H108.57V191.906C108.57 192.245 108.641 192.5 108.781 192.672C108.922 192.839 109.161 192.922 109.5 192.922C109.667 192.922 109.896 192.891 110.188 192.828V194C109.807 194.104 109.438 194.156 109.078 194.156C108.432 194.156 107.945 193.961 107.617 193.57C107.289 193.18 107.125 192.625 107.125 191.906V186.664H105.586V185.547H107.125V183.5H108.57ZM111.305 189.695C111.305 188.867 111.466 188.122 111.789 187.461C112.117 186.799 112.57 186.289 113.148 185.93C113.732 185.57 114.396 185.391 115.141 185.391C116.292 185.391 117.221 185.789 117.93 186.586C118.643 187.383 119 188.443 119 189.766V189.867C119 190.69 118.841 191.43 118.523 192.086C118.211 192.737 117.76 193.245 117.172 193.609C116.589 193.974 115.917 194.156 115.156 194.156C114.01 194.156 113.081 193.758 112.367 192.961C111.659 192.164 111.305 191.109 111.305 189.797V189.695ZM112.758 189.867C112.758 190.805 112.974 191.557 113.406 192.125C113.844 192.693 114.427 192.977 115.156 192.977C115.891 192.977 116.474 192.69 116.906 192.117C117.339 191.539 117.555 190.732 117.555 189.695C117.555 188.768 117.333 188.018 116.891 187.445C116.453 186.867 115.87 186.578 115.141 186.578C114.427 186.578 113.852 186.862 113.414 187.43C112.977 187.997 112.758 188.81 112.758 189.867ZM126.742 183.5V185.547H128.32V186.664H126.742V191.906C126.742 192.245 126.812 192.5 126.953 192.672C127.094 192.839 127.333 192.922 127.672 192.922C127.839 192.922 128.068 192.891 128.359 192.828V194C127.979 194.104 127.609 194.156 127.25 194.156C126.604 194.156 126.117 193.961 125.789 193.57C125.461 193.18 125.297 192.625 125.297 191.906V186.664H123.758V185.547H125.297V183.5H126.742ZM131.461 186.57C132.102 185.784 132.935 185.391 133.961 185.391C135.747 185.391 136.648 186.398 136.664 188.414V194H135.219V188.406C135.214 187.797 135.073 187.346 134.797 187.055C134.526 186.763 134.102 186.617 133.523 186.617C133.055 186.617 132.643 186.742 132.289 186.992C131.935 187.242 131.659 187.57 131.461 187.977V194H130.016V182H131.461V186.57ZM142.336 194.156C141.19 194.156 140.258 193.781 139.539 193.031C138.82 192.276 138.461 191.268 138.461 190.008V189.742C138.461 188.904 138.62 188.156 138.938 187.5C139.26 186.839 139.708 186.323 140.281 185.953C140.859 185.578 141.484 185.391 142.156 185.391C143.255 185.391 144.109 185.753 144.719 186.477C145.328 187.201 145.633 188.237 145.633 189.586V190.188H139.906C139.927 191.021 140.169 191.695 140.633 192.211C141.102 192.721 141.695 192.977 142.414 192.977C142.924 192.977 143.357 192.872 143.711 192.664C144.065 192.456 144.375 192.18 144.641 191.836L145.523 192.523C144.815 193.612 143.753 194.156 142.336 194.156ZM142.156 186.578C141.573 186.578 141.083 186.792 140.688 187.219C140.292 187.641 140.047 188.234 139.953 189H144.188V188.891C144.146 188.156 143.948 187.589 143.594 187.188C143.24 186.781 142.76 186.578 142.156 186.578ZM2.45312 214.82H7.39844V216H0.6875V214.938L5.35156 208.742H0.757812V207.547H7.16406V208.57L2.45312 214.82ZM8.52344 211.695C8.52344 210.867 8.6849 210.122 9.00781 209.461C9.33594 208.799 9.78906 208.289 10.3672 207.93C10.9505 207.57 11.6146 207.391 12.3594 207.391C13.5104 207.391 14.4401 207.789 15.1484 208.586C15.862 209.383 16.2188 210.443 16.2188 211.766V211.867C16.2188 212.69 16.0599 213.43 15.7422 214.086C15.4297 214.737 14.9792 215.245 14.3906 215.609C13.8073 215.974 13.1354 216.156 12.375 216.156C11.2292 216.156 10.2995 215.758 9.58594 214.961C8.8776 214.164 8.52344 213.109 8.52344 211.797V211.695ZM9.97656 211.867C9.97656 212.805 10.1927 213.557 10.625 214.125C11.0625 214.693 11.6458 214.977 12.375 214.977C13.1094 214.977 13.6927 214.69 14.125 214.117C14.5573 213.539 14.7734 212.732 14.7734 211.695C14.7734 210.768 14.5521 210.018 14.1094 209.445C13.6719 208.867 13.0885 208.578 12.3594 208.578C11.6458 208.578 11.0703 208.862 10.6328 209.43C10.1953 209.997 9.97656 210.81 9.97656 211.867ZM17.6484 211.695C17.6484 210.867 17.8099 210.122 18.1328 209.461C18.4609 208.799 18.9141 208.289 19.4922 207.93C20.0755 207.57 20.7396 207.391 21.4844 207.391C22.6354 207.391 23.5651 207.789 24.2734 208.586C24.987 209.383 25.3438 210.443 25.3438 211.766V211.867C25.3438 212.69 25.1849 213.43 24.8672 214.086C24.5547 214.737 24.1042 215.245 23.5156 215.609C22.9323 215.974 22.2604 216.156 21.5 216.156C20.3542 216.156 19.4245 215.758 18.7109 214.961C18.0026 214.164 17.6484 213.109 17.6484 211.797V211.695ZM19.1016 211.867C19.1016 212.805 19.3177 213.557 19.75 214.125C20.1875 214.693 20.7708 214.977 21.5 214.977C22.2344 214.977 22.8177 214.69 23.25 214.117C23.6823 213.539 23.8984 212.732 23.8984 211.695C23.8984 210.768 23.6771 210.018 23.2344 209.445C22.7969 208.867 22.2135 208.578 21.4844 208.578C20.7708 208.578 20.1953 208.862 19.7578 209.43C19.3203 209.997 19.1016 210.81 19.1016 211.867Z" fill="#333B41"/>
<path d="M79.9738 43.264C79.6244 42.9363 79.2749 42.6961 78.9472 42.5213C78.6196 42.3684 78.2483 42.2811 77.8333 42.2811C77.3528 42.2811 77.0033 42.3903 76.763 42.5869C76.5228 42.7834 76.3917 43.1111 76.3917 43.5479C76.3917 43.8537 76.5228 44.1377 76.7849 44.3342C77.047 44.5527 77.3528 44.7492 77.7459 44.9458C78.1391 45.1424 78.5541 45.339 78.9909 45.5574C79.4278 45.7758 79.8428 46.0161 80.2359 46.3219C80.6291 46.6277 80.9349 46.9771 81.197 47.414C81.4591 47.8508 81.5902 48.375 81.5902 48.9866C81.5902 49.9258 81.3281 50.734 80.8257 51.4111C80.3233 52.0882 79.537 52.5251 78.5322 52.7653V54.8185H76.632V52.8527C76.0641 52.7872 75.4525 52.6343 74.8191 52.3722C74.1856 52.1101 73.6396 51.7824 73.1809 51.3674L74.4478 49.4235C74.9501 49.7948 75.4307 50.0787 75.8675 50.2753C76.3262 50.4719 76.7849 50.5593 77.2436 50.5593C77.7896 50.5593 78.2046 50.4501 78.4449 50.2316C78.707 50.0132 78.838 49.6637 78.838 49.2051C78.838 48.8556 78.707 48.5716 78.4449 48.3314C78.1828 48.0911 77.877 47.8727 77.4838 47.6543C77.0907 47.4358 76.6757 47.2174 76.2388 46.999C75.802 46.7806 75.387 46.5185 74.9938 46.2127C74.6007 45.9069 74.2949 45.5574 74.0328 45.1424C73.7706 44.7274 73.6396 44.2469 73.6396 43.6571C73.6396 42.6961 73.9017 41.8879 74.4259 41.2545C74.9501 40.6211 75.6928 40.2061 76.6101 40.0313V38H78.5104V39.9876C79.1438 40.075 79.6899 40.2716 80.1704 40.5555C80.6509 40.8395 81.0659 41.189 81.4591 41.604L79.9738 43.264Z" fill="#333B41"/>
<path fill-rule="evenodd" clip-rule="evenodd" d="M127 114.001L123.406 111.789L115.389 126.164L119.26 128.099L127 114.001Z" fill="#333B41"/>
<path fill-rule="evenodd" clip-rule="evenodd" d="M121.471 111.236C112.072 100.455 103.778 103.219 92.7209 110.406C83.0454 116.765 75.858 112.342 68.6705 115.382C67.0119 116.212 64.5239 118.147 66.7354 120.082C67.8412 120.911 72.2642 121.74 73.6464 121.464C81.1103 119.805 83.3219 123.123 94.6559 120.911C91.3387 123.399 80.5575 121.74 73.9229 122.57C68.6705 123.676 60.1008 119.529 67.0119 114.829C63.971 113.447 61.2066 112.618 57.8893 112.342C54.572 109.854 49.3197 106.813 46.5552 105.707C44.3437 104.325 38.8149 104.878 42.4086 108.471C46.0024 111.789 55.6778 119.253 57.6129 120.358C65.3532 125.058 72.5407 128.375 80.0046 132.522C80.0046 132.522 82.4926 133.904 87.4685 131.969C91.0622 130.31 107.096 121.464 110.966 122.846C113.177 123.676 114.283 124.228 114.283 124.228L121.471 111.236Z" stroke="#333B41" stroke-width="1.5"/>
<path fill-rule="evenodd" clip-rule="evenodd" d="M74.7528 110.407C75.3057 109.301 75.8586 108.471 76.6879 108.195C77.5172 107.919 77.7937 108.471 78.3465 109.024C78.8994 109.854 79.1759 110.13 80.0052 110.683C80.2816 110.959 80.8345 110.959 81.1109 110.959L80.5581 110.683C79.7287 110.13 79.1759 109.577 79.4523 108.471C79.4523 108.195 79.1759 107.642 79.7287 107.642C80.2816 107.919 81.1109 108.471 81.9403 108.471C81.9403 108.471 82.7696 108.748 82.4931 108.471C82.4931 108.195 81.9403 107.919 81.6638 107.642C80.0052 106.26 80.0052 105.983 80.0052 104.048C80.2816 101.284 79.1759 99.0725 77.2408 97.1374C72.8177 92.7143 74.7528 86.6326 78.0701 80.8274C81.1109 75.575 83.8753 74.7457 80.8345 68.3875C79.7287 65.6231 77.7937 62.8587 77.5172 61.2001C77.5172 60.6472 77.5172 60.9236 77.5172 61.2001C77.2408 62.8587 78.3465 65.3467 79.4523 67.8346C81.9403 73.3635 81.3874 73.9163 77.7937 78.8923C73.9235 83.8682 71.1591 89.1206 72.8177 94.6494C73.9235 98.5196 79.4523 102.39 76.6879 104.878C75.3057 105.983 73.3706 108.748 73.0942 110.407C72.8177 111.236 72.8177 111.236 72.5413 111.789C72.2648 112.065 72.5413 112.065 72.8177 112.065C74.1999 111.789 74.1999 111.236 74.7528 110.407Z" fill="#333B41"/>
<path d="M93.068 84.5295L93.9801 84.2689L94.0232 85.2166C94.171 88.4688 92.7785 92.3669 90.4893 95.443C89.3023 97.0379 87.8405 98.455 86.1798 99.4492C87.2729 99.0745 88.4759 98.3843 89.693 97.17C92.9277 93.6797 93.8196 89.2424 94.8558 83.5541C93.8903 83.6407 92.939 83.8569 91.9621 84.1397C91.3211 84.3252 90.6773 84.5369 90.0111 84.7575C89.9707 84.7709 89.9303 84.7843 89.8898 84.7977C89.2724 85.0022 88.6358 85.2132 87.983 85.4094C82.8544 87.3026 80.0789 89.66 79.0705 92.365C78.8202 93.6545 78.8551 94.8197 79.2935 95.6964L79.3303 95.7701L79.3502 95.85C79.5236 96.5432 80.2251 97.1852 81.1664 97.7024C82.2176 96.7135 82.9504 95.8301 83.6711 94.9129C83.4958 95.0933 83.3319 95.2655 83.177 95.4285C83.0512 95.5607 82.9313 95.6868 82.8158 95.8062C82.6195 96.009 82.4294 96.199 82.2546 96.3502C82.0972 96.4863 81.8775 96.6589 81.6242 96.7434L81.4353 96.8064L81.24 96.7673C80.3452 96.5883 79.6727 96.094 79.397 95.2669C79.1499 94.5257 79.2728 93.6551 79.5608 92.7808C80.0551 90.8478 81.5708 89.3367 83.8139 88.055C86.0718 86.7647 89.1837 85.6393 93.068 84.5295Z" stroke="#333B41" stroke-width="1.5"/>
<path d="M66.3596 66.3643C64.8834 65.8492 63.5975 65.4005 62.1588 65.1376C62.2081 65.3788 62.2565 65.6174 62.3044 65.8534C62.435 66.4962 62.5616 67.1198 62.6907 67.7246C62.6549 67.2771 62.6472 66.8382 62.6697 66.4123L62.7194 65.4666L63.6286 65.7318C66.9611 66.7037 69.6538 67.6903 71.6309 68.8047C73.3949 69.7989 74.6825 70.9473 75.2883 72.3665C74.4485 70.1059 72.2374 68.1686 67.9065 66.8948L67.8936 66.8911L67.8809 66.8868C67.3455 66.7083 66.8424 66.5328 66.3596 66.3643ZM65.6847 75.3306C65.1001 74.544 64.585 73.692 64.1531 72.809C64.7589 74.2532 65.5581 75.5474 66.7134 76.7026L66.7232 76.7124L66.7326 76.7226C67.369 77.4079 68.008 77.8995 68.6251 78.2466C67.5046 77.4579 66.5136 76.4458 65.6847 75.3306ZM75.4641 75.5153C75.8985 74.6464 75.911 73.8128 75.5015 72.9459C75.7846 73.7323 75.7967 74.5125 75.5112 75.1786C75.205 75.893 74.5926 76.3874 73.8288 76.5784L73.617 76.6313L73.4098 76.5623C73.3252 76.5341 73.2444 76.4969 73.1683 76.4549C73.3424 76.6533 73.5256 76.8554 73.7217 77.0632L73.7415 77.0582C74.7005 76.8185 75.2238 76.4027 75.4073 75.6688L75.4273 75.589L75.4641 75.5153Z" stroke="#333B41" stroke-width="1.5"/>
<path d="M90.7817 66.6737C90.4562 67.0623 90.1084 67.4326 89.7404 67.7774C89.9069 67.6377 90.0745 67.4847 90.2426 67.3173C90.4332 67.107 90.6125 66.8925 90.7817 66.6737ZM93.9904 57.4632C93.9931 57.4485 93.9958 57.4339 93.9985 57.4192C92.4669 57.7176 90.8898 58.1958 89.1138 58.8619L89.1138 58.862L89.1027 58.8659C85.6254 60.1078 83.7148 61.5081 82.8639 63.3821C83.4433 62.1925 84.4856 61.2211 85.9543 60.3774C87.6626 59.396 90.0171 58.5468 93.0761 57.7125L93.9904 57.4632ZM83.9138 67.1644C83.613 67.0641 83.3531 66.9107 83.14 66.7126C83.3282 67.0578 83.5877 67.3416 83.9505 67.5211C84.0559 67.4115 84.1572 67.304 84.2551 67.1981C84.2211 67.2012 84.1863 67.2028 84.1509 67.2028H84.0292L83.9138 67.1644Z" stroke="#333B41" stroke-width="1.5"/>
<defs>
<linearGradient id="paint0_linear_152_57" x1="-7.44304" y1="24.8889" x2="195.1" y2="114.913" gradientUnits="userSpaceOnUse">
<stop stop-color="#F9804B"/>
<stop offset="1" stop-color="#FE9013"/>
</linearGradient>
</defs>
</svg>
