<svg width="168" height="231" viewBox="0 0 168 231" fill="none" xmlns="http://www.w3.org/2000/svg">
<rect x="0.5" y="0.5" width="167" height="167" rx="4.5" fill="white" stroke="url(#paint0_linear_152_80)"/>
<path d="M4.78906 188.336L7.75781 182.625H9.46094L5.53906 189.758V194H4.03906V189.758L0.117188 182.625H1.83594L4.78906 188.336ZM9.80469 189.695C9.80469 188.867 9.96615 188.122 10.2891 187.461C10.6172 186.799 11.0703 186.289 11.6484 185.93C12.2318 185.57 12.8958 185.391 13.6406 185.391C14.7917 185.391 15.7214 185.789 16.4297 186.586C17.1432 187.383 17.5 188.443 17.5 189.766V189.867C17.5 190.69 17.3411 191.43 17.0234 192.086C16.7109 192.737 16.2604 193.245 15.6719 193.609C15.0885 193.974 14.4167 194.156 13.6562 194.156C12.5104 194.156 11.5807 193.758 10.8672 192.961C10.1589 192.164 9.80469 191.109 9.80469 189.797V189.695ZM11.2578 189.867C11.2578 190.805 11.474 191.557 11.9062 192.125C12.3438 192.693 12.9271 192.977 13.6562 192.977C14.3906 192.977 14.974 192.69 15.4062 192.117C15.8385 191.539 16.0547 190.732 16.0547 189.695C16.0547 188.768 15.8333 188.018 15.3906 187.445C14.9531 186.867 14.3698 186.578 13.6406 186.578C12.9271 186.578 12.3516 186.862 11.9141 187.43C11.4766 187.997 11.2578 188.81 11.2578 189.867ZM24.5312 193.164C23.9688 193.826 23.1432 194.156 22.0547 194.156C21.1536 194.156 20.4661 193.896 19.9922 193.375C19.5234 192.849 19.2865 192.073 19.2812 191.047V185.547H20.7266V191.008C20.7266 192.289 21.2474 192.93 22.2891 192.93C23.3932 192.93 24.1276 192.518 24.4922 191.695V185.547H25.9375V194H24.5625L24.5312 193.164ZM32.2266 186.844C32.0078 186.807 31.7708 186.789 31.5156 186.789C30.5677 186.789 29.9245 187.193 29.5859 188V194H28.1406V185.547H29.5469L29.5703 186.523C30.0443 185.768 30.7161 185.391 31.5859 185.391C31.8672 185.391 32.0807 185.427 32.2266 185.5V186.844ZM38.2422 194V186.664H36.9062V185.547H38.2422V184.68C38.2422 183.773 38.4844 183.073 38.9688 182.578C39.4531 182.083 40.138 181.836 41.0234 181.836C41.3568 181.836 41.6875 181.88 42.0156 181.969L41.9375 183.141C41.6927 183.094 41.4323 183.07 41.1562 183.07C40.6875 183.07 40.3255 183.208 40.0703 183.484C39.8151 183.755 39.6875 184.146 39.6875 184.656V185.547H41.4922V186.664H39.6875V194H38.2422ZM48.3125 194C48.2292 193.833 48.1615 193.536 48.1094 193.109C47.4375 193.807 46.6354 194.156 45.7031 194.156C44.8698 194.156 44.1849 193.922 43.6484 193.453C43.1172 192.979 42.8516 192.38 42.8516 191.656C42.8516 190.776 43.1849 190.094 43.8516 189.609C44.5234 189.12 45.4661 188.875 46.6797 188.875H48.0859V188.211C48.0859 187.706 47.9349 187.305 47.6328 187.008C47.3307 186.706 46.8854 186.555 46.2969 186.555C45.7812 186.555 45.349 186.685 45 186.945C44.651 187.206 44.4766 187.521 44.4766 187.891H43.0234C43.0234 187.469 43.1719 187.062 43.4688 186.672C43.7708 186.276 44.1771 185.964 44.6875 185.734C45.2031 185.505 45.7682 185.391 46.3828 185.391C47.3568 185.391 48.1198 185.635 48.6719 186.125C49.224 186.609 49.5104 187.279 49.5312 188.133V192.023C49.5312 192.799 49.6302 193.417 49.8281 193.875V194H48.3125ZM45.9141 192.898C46.3672 192.898 46.7969 192.781 47.2031 192.547C47.6094 192.312 47.9036 192.008 48.0859 191.633V189.898H46.9531C45.1823 189.898 44.2969 190.417 44.2969 191.453C44.2969 191.906 44.4479 192.26 44.75 192.516C45.0521 192.771 45.4401 192.898 45.9141 192.898ZM54.4609 192.039L56.5547 185.547H58.0312L55 194H53.8984L50.8359 185.547H52.3125L54.4609 192.039ZM58.9141 189.695C58.9141 188.867 59.0755 188.122 59.3984 187.461C59.7266 186.799 60.1797 186.289 60.7578 185.93C61.3411 185.57 62.0052 185.391 62.75 185.391C63.901 185.391 64.8307 185.789 65.5391 186.586C66.2526 187.383 66.6094 188.443 66.6094 189.766V189.867C66.6094 190.69 66.4505 191.43 66.1328 192.086C65.8203 192.737 65.3698 193.245 64.7812 193.609C64.1979 193.974 63.526 194.156 62.7656 194.156C61.6198 194.156 60.6901 193.758 59.9766 192.961C59.2682 192.164 58.9141 191.109 58.9141 189.797V189.695ZM60.3672 189.867C60.3672 190.805 60.5833 191.557 61.0156 192.125C61.4531 192.693 62.0365 192.977 62.7656 192.977C63.5 192.977 64.0833 192.69 64.5156 192.117C64.9479 191.539 65.1641 190.732 65.1641 189.695C65.1641 188.768 64.9427 188.018 64.5 187.445C64.0625 186.867 63.4792 186.578 62.75 186.578C62.0365 186.578 61.4609 186.862 61.0234 187.43C60.5859 187.997 60.3672 188.81 60.3672 189.867ZM73.6406 193.164C73.0781 193.826 72.2526 194.156 71.1641 194.156C70.263 194.156 69.5755 193.896 69.1016 193.375C68.6328 192.849 68.3958 192.073 68.3906 191.047V185.547H69.8359V191.008C69.8359 192.289 70.3568 192.93 71.3984 192.93C72.5026 192.93 73.237 192.518 73.6016 191.695V185.547H75.0469V194H73.6719L73.6406 193.164ZM81.3359 186.844C81.1172 186.807 80.8802 186.789 80.625 186.789C79.6771 186.789 79.0339 187.193 78.6953 188V194H77.25V185.547H78.6562L78.6797 186.523C79.1536 185.768 79.8255 185.391 80.6953 185.391C80.9766 185.391 81.1901 185.427 81.3359 185.5V186.844ZM84.2422 194H82.7969V185.547H84.2422V194ZM82.6797 183.305C82.6797 183.07 82.75 182.872 82.8906 182.711C83.0365 182.549 83.25 182.469 83.5312 182.469C83.8125 182.469 84.026 182.549 84.1719 182.711C84.3177 182.872 84.3906 183.07 84.3906 183.305C84.3906 183.539 84.3177 183.734 84.1719 183.891C84.026 184.047 83.8125 184.125 83.5312 184.125C83.25 184.125 83.0365 184.047 82.8906 183.891C82.75 183.734 82.6797 183.539 82.6797 183.305ZM88.5234 183.5V185.547H90.1016V186.664H88.5234V191.906C88.5234 192.245 88.5938 192.5 88.7344 192.672C88.875 192.839 89.1146 192.922 89.4531 192.922C89.6198 192.922 89.849 192.891 90.1406 192.828V194C89.7604 194.104 89.3906 194.156 89.0312 194.156C88.3854 194.156 87.8984 193.961 87.5703 193.57C87.2422 193.18 87.0781 192.625 87.0781 191.906V186.664H85.5391V185.547H87.0781V183.5H88.5234ZM95.3047 194.156C94.1589 194.156 93.2266 193.781 92.5078 193.031C91.7891 192.276 91.4297 191.268 91.4297 190.008V189.742C91.4297 188.904 91.5885 188.156 91.9062 187.5C92.2292 186.839 92.6771 186.323 93.25 185.953C93.8281 185.578 94.4531 185.391 95.125 185.391C96.224 185.391 97.0781 185.753 97.6875 186.477C98.2969 187.201 98.6016 188.237 98.6016 189.586V190.188H92.875C92.8958 191.021 93.138 191.695 93.6016 192.211C94.0703 192.721 94.6641 192.977 95.3828 192.977C95.8932 192.977 96.3255 192.872 96.6797 192.664C97.0339 192.456 97.3438 192.18 97.6094 191.836L98.4922 192.523C97.7839 193.612 96.7214 194.156 95.3047 194.156ZM95.125 186.578C94.5417 186.578 94.0521 186.792 93.6562 187.219C93.2604 187.641 93.0156 188.234 92.9219 189H97.1562V188.891C97.1146 188.156 96.9167 187.589 96.5625 187.188C96.2083 186.781 95.7292 186.578 95.125 186.578ZM109.469 194C109.385 193.833 109.318 193.536 109.266 193.109C108.594 193.807 107.792 194.156 106.859 194.156C106.026 194.156 105.341 193.922 104.805 193.453C104.273 192.979 104.008 192.38 104.008 191.656C104.008 190.776 104.341 190.094 105.008 189.609C105.68 189.12 106.622 188.875 107.836 188.875H109.242V188.211C109.242 187.706 109.091 187.305 108.789 187.008C108.487 186.706 108.042 186.555 107.453 186.555C106.938 186.555 106.505 186.685 106.156 186.945C105.807 187.206 105.633 187.521 105.633 187.891H104.18C104.18 187.469 104.328 187.062 104.625 186.672C104.927 186.276 105.333 185.964 105.844 185.734C106.359 185.505 106.924 185.391 107.539 185.391C108.513 185.391 109.276 185.635 109.828 186.125C110.38 186.609 110.667 187.279 110.688 188.133V192.023C110.688 192.799 110.786 193.417 110.984 193.875V194H109.469ZM107.07 192.898C107.523 192.898 107.953 192.781 108.359 192.547C108.766 192.312 109.06 192.008 109.242 191.633V189.898H108.109C106.339 189.898 105.453 190.417 105.453 191.453C105.453 191.906 105.604 192.26 105.906 192.516C106.208 192.771 106.596 192.898 107.07 192.898ZM114.32 185.547L114.367 186.609C115.013 185.797 115.857 185.391 116.898 185.391C118.685 185.391 119.586 186.398 119.602 188.414V194H118.156V188.406C118.151 187.797 118.01 187.346 117.734 187.055C117.464 186.763 117.039 186.617 116.461 186.617C115.992 186.617 115.581 186.742 115.227 186.992C114.872 187.242 114.596 187.57 114.398 187.977V194H112.953V185.547H114.32ZM123.352 194H121.906V185.547H123.352V194ZM121.789 183.305C121.789 183.07 121.859 182.872 122 182.711C122.146 182.549 122.359 182.469 122.641 182.469C122.922 182.469 123.135 182.549 123.281 182.711C123.427 182.872 123.5 183.07 123.5 183.305C123.5 183.539 123.427 183.734 123.281 183.891C123.135 184.047 122.922 184.125 122.641 184.125C122.359 184.125 122.146 184.047 122 183.891C121.859 183.734 121.789 183.539 121.789 183.305ZM127.031 185.547L127.07 186.484C127.69 185.755 128.526 185.391 129.578 185.391C130.76 185.391 131.565 185.844 131.992 186.75C132.273 186.344 132.638 186.016 133.086 185.766C133.539 185.516 134.073 185.391 134.688 185.391C136.542 185.391 137.484 186.372 137.516 188.336V194H136.07V188.422C136.07 187.818 135.932 187.367 135.656 187.07C135.38 186.768 134.917 186.617 134.266 186.617C133.729 186.617 133.284 186.779 132.93 187.102C132.576 187.419 132.37 187.849 132.312 188.391V194H130.859V188.461C130.859 187.232 130.258 186.617 129.055 186.617C128.107 186.617 127.458 187.021 127.109 187.828V194H125.664V185.547H127.031ZM144.922 194C144.839 193.833 144.771 193.536 144.719 193.109C144.047 193.807 143.245 194.156 142.312 194.156C141.479 194.156 140.794 193.922 140.258 193.453C139.727 192.979 139.461 192.38 139.461 191.656C139.461 190.776 139.794 190.094 140.461 189.609C141.133 189.12 142.076 188.875 143.289 188.875H144.695V188.211C144.695 187.706 144.544 187.305 144.242 187.008C143.94 186.706 143.495 186.555 142.906 186.555C142.391 186.555 141.958 186.685 141.609 186.945C141.26 187.206 141.086 187.521 141.086 187.891H139.633C139.633 187.469 139.781 187.062 140.078 186.672C140.38 186.276 140.786 185.964 141.297 185.734C141.812 185.505 142.378 185.391 142.992 185.391C143.966 185.391 144.729 185.635 145.281 186.125C145.833 186.609 146.12 187.279 146.141 188.133V192.023C146.141 192.799 146.24 193.417 146.438 193.875V194H144.922ZM142.523 192.898C142.977 192.898 143.406 192.781 143.812 192.547C144.219 192.312 144.513 192.008 144.695 191.633V189.898H143.562C141.792 189.898 140.906 190.417 140.906 191.453C140.906 191.906 141.057 192.26 141.359 192.516C141.661 192.771 142.049 192.898 142.523 192.898ZM149.977 194H148.531V182H149.977V194ZM0.75 211.703C0.75 210.385 1.05469 209.339 1.66406 208.562C2.27344 207.781 3.08073 207.391 4.08594 207.391C5.11719 207.391 5.92188 207.755 6.5 208.484L6.57031 207.547H7.89062V215.797C7.89062 216.891 7.5651 217.753 6.91406 218.383C6.26823 219.013 5.39844 219.328 4.30469 219.328C3.69531 219.328 3.09896 219.198 2.51562 218.938C1.93229 218.677 1.48698 218.32 1.17969 217.867L1.92969 217C2.54948 217.766 3.30729 218.148 4.20312 218.148C4.90625 218.148 5.45312 217.951 5.84375 217.555C6.23958 217.159 6.4375 216.602 6.4375 215.883V215.156C5.85938 215.823 5.07031 216.156 4.07031 216.156C3.08073 216.156 2.27865 215.758 1.66406 214.961C1.05469 214.164 0.75 213.078 0.75 211.703ZM2.20312 211.867C2.20312 212.82 2.39844 213.57 2.78906 214.117C3.17969 214.659 3.72656 214.93 4.42969 214.93C5.34115 214.93 6.01042 214.516 6.4375 213.688V209.828C5.99479 209.021 5.33073 208.617 4.44531 208.617C3.74219 208.617 3.19271 208.891 2.79688 209.438C2.40104 209.984 2.20312 210.794 2.20312 211.867ZM13.5859 216.156C12.4401 216.156 11.5078 215.781 10.7891 215.031C10.0703 214.276 9.71094 213.268 9.71094 212.008V211.742C9.71094 210.904 9.86979 210.156 10.1875 209.5C10.5104 208.839 10.9583 208.323 11.5312 207.953C12.1094 207.578 12.7344 207.391 13.4062 207.391C14.5052 207.391 15.3594 207.753 15.9688 208.477C16.5781 209.201 16.8828 210.237 16.8828 211.586V212.188H11.1562C11.1771 213.021 11.4193 213.695 11.8828 214.211C12.3516 214.721 12.9453 214.977 13.6641 214.977C14.1745 214.977 14.6068 214.872 14.9609 214.664C15.3151 214.456 15.625 214.18 15.8906 213.836L16.7734 214.523C16.0651 215.612 15.0026 216.156 13.5859 216.156ZM13.4062 208.578C12.8229 208.578 12.3333 208.792 11.9375 209.219C11.5417 209.641 11.2969 210.234 11.2031 211H15.4375V210.891C15.3958 210.156 15.1979 209.589 14.8438 209.188C14.4896 208.781 14.0104 208.578 13.4062 208.578ZM20.5234 205.5V207.547H22.1016V208.664H20.5234V213.906C20.5234 214.245 20.5938 214.5 20.7344 214.672C20.875 214.839 21.1146 214.922 21.4531 214.922C21.6198 214.922 21.849 214.891 22.1406 214.828V216C21.7604 216.104 21.3906 216.156 21.0312 216.156C20.3854 216.156 19.8984 215.961 19.5703 215.57C19.2422 215.18 19.0781 214.625 19.0781 213.906V208.664H17.5391V207.547H19.0781V205.5H20.5234ZM28.7188 213.758C28.7188 213.367 28.5703 213.065 28.2734 212.852C27.9818 212.633 27.4688 212.445 26.7344 212.289C26.0052 212.133 25.4245 211.945 24.9922 211.727C24.5651 211.508 24.2474 211.247 24.0391 210.945C23.8359 210.643 23.7344 210.284 23.7344 209.867C23.7344 209.174 24.026 208.589 24.6094 208.109C25.1979 207.63 25.9479 207.391 26.8594 207.391C27.8177 207.391 28.5938 207.638 29.1875 208.133C29.7865 208.628 30.0859 209.26 30.0859 210.031H28.6328C28.6328 209.635 28.4635 209.294 28.125 209.008C27.7917 208.721 27.3698 208.578 26.8594 208.578C26.3333 208.578 25.9219 208.693 25.625 208.922C25.3281 209.151 25.1797 209.451 25.1797 209.82C25.1797 210.169 25.3177 210.432 25.5938 210.609C25.8698 210.786 26.3672 210.956 27.0859 211.117C27.8099 211.279 28.3958 211.471 28.8438 211.695C29.2917 211.919 29.6224 212.19 29.8359 212.508C30.0547 212.82 30.1641 213.203 30.1641 213.656C30.1641 214.411 29.862 215.018 29.2578 215.477C28.6536 215.93 27.8698 216.156 26.9062 216.156C26.2292 216.156 25.6302 216.036 25.1094 215.797C24.5885 215.557 24.1797 215.224 23.8828 214.797C23.5911 214.365 23.4453 213.898 23.4453 213.398H24.8906C24.9167 213.883 25.1094 214.268 25.4688 214.555C25.8333 214.836 26.3125 214.977 26.9062 214.977C27.4531 214.977 27.8906 214.867 28.2188 214.648C28.5521 214.424 28.7188 214.128 28.7188 213.758ZM35.6641 211.703C35.6641 210.406 35.9714 209.365 36.5859 208.578C37.2005 207.786 38.0052 207.391 39 207.391C39.9896 207.391 40.7734 207.729 41.3516 208.406V204H42.7969V216H41.4688L41.3984 215.094C40.8203 215.802 40.0156 216.156 38.9844 216.156C38.0052 216.156 37.2057 215.755 36.5859 214.953C35.9714 214.151 35.6641 213.104 35.6641 211.812V211.703ZM37.1094 211.867C37.1094 212.826 37.3073 213.576 37.7031 214.117C38.099 214.659 38.6458 214.93 39.3438 214.93C40.2604 214.93 40.9297 214.518 41.3516 213.695V209.812C40.9193 209.016 40.2552 208.617 39.3594 208.617C38.651 208.617 38.099 208.891 37.7031 209.438C37.3073 209.984 37.1094 210.794 37.1094 211.867ZM48.5547 216.156C47.4089 216.156 46.4766 215.781 45.7578 215.031C45.0391 214.276 44.6797 213.268 44.6797 212.008V211.742C44.6797 210.904 44.8385 210.156 45.1562 209.5C45.4792 208.839 45.9271 208.323 46.5 207.953C47.0781 207.578 47.7031 207.391 48.375 207.391C49.474 207.391 50.3281 207.753 50.9375 208.477C51.5469 209.201 51.8516 210.237 51.8516 211.586V212.188H46.125C46.1458 213.021 46.388 213.695 46.8516 214.211C47.3203 214.721 47.9141 214.977 48.6328 214.977C49.1432 214.977 49.5755 214.872 49.9297 214.664C50.2839 214.456 50.5938 214.18 50.8594 213.836L51.7422 214.523C51.0339 215.612 49.9714 216.156 48.5547 216.156ZM48.375 208.578C47.7917 208.578 47.3021 208.792 46.9062 209.219C46.5104 209.641 46.2656 210.234 46.1719 211H50.4062V210.891C50.3646 210.156 50.1667 209.589 49.8125 209.188C49.4583 208.781 48.9792 208.578 48.375 208.578ZM55.1016 216H53.6562V204H55.1016V216ZM58.9922 216H57.5469V207.547H58.9922V216ZM57.4297 205.305C57.4297 205.07 57.5 204.872 57.6406 204.711C57.7865 204.549 58 204.469 58.2812 204.469C58.5625 204.469 58.776 204.549 58.9219 204.711C59.0677 204.872 59.1406 205.07 59.1406 205.305C59.1406 205.539 59.0677 205.734 58.9219 205.891C58.776 206.047 58.5625 206.125 58.2812 206.125C58 206.125 57.7865 206.047 57.6406 205.891C57.5 205.734 57.4297 205.539 57.4297 205.305ZM64.7031 214.977C65.2188 214.977 65.6693 214.82 66.0547 214.508C66.4401 214.195 66.6536 213.805 66.6953 213.336H68.0625C68.0365 213.82 67.8698 214.281 67.5625 214.719C67.2552 215.156 66.8438 215.505 66.3281 215.766C65.8177 216.026 65.276 216.156 64.7031 216.156C63.5521 216.156 62.6354 215.773 61.9531 215.008C61.276 214.237 60.9375 213.185 60.9375 211.852V211.609C60.9375 210.786 61.0885 210.055 61.3906 209.414C61.6927 208.773 62.125 208.276 62.6875 207.922C63.2552 207.568 63.9245 207.391 64.6953 207.391C65.6432 207.391 66.4297 207.674 67.0547 208.242C67.6849 208.81 68.0208 209.547 68.0625 210.453H66.6953C66.6536 209.906 66.4453 209.458 66.0703 209.109C65.7005 208.755 65.2422 208.578 64.6953 208.578C63.9609 208.578 63.3906 208.844 62.9844 209.375C62.5833 209.901 62.3828 210.664 62.3828 211.664V211.938C62.3828 212.911 62.5833 213.661 62.9844 214.188C63.3854 214.714 63.9583 214.977 64.7031 214.977ZM71.2578 216H69.8125V207.547H71.2578V216ZM69.6953 205.305C69.6953 205.07 69.7656 204.872 69.9062 204.711C70.0521 204.549 70.2656 204.469 70.5469 204.469C70.8281 204.469 71.0417 204.549 71.1875 204.711C71.3333 204.872 71.4062 205.07 71.4062 205.305C71.4062 205.539 71.3333 205.734 71.1875 205.891C71.0417 206.047 70.8281 206.125 70.5469 206.125C70.2656 206.125 70.0521 206.047 69.9062 205.891C69.7656 205.734 69.6953 205.539 69.6953 205.305ZM73.1953 211.695C73.1953 210.867 73.3568 210.122 73.6797 209.461C74.0078 208.799 74.4609 208.289 75.0391 207.93C75.6224 207.57 76.2865 207.391 77.0312 207.391C78.1823 207.391 79.112 207.789 79.8203 208.586C80.5339 209.383 80.8906 210.443 80.8906 211.766V211.867C80.8906 212.69 80.7318 213.43 80.4141 214.086C80.1016 214.737 79.651 215.245 79.0625 215.609C78.4792 215.974 77.8073 216.156 77.0469 216.156C75.901 216.156 74.9714 215.758 74.2578 214.961C73.5495 214.164 73.1953 213.109 73.1953 211.797V211.695ZM74.6484 211.867C74.6484 212.805 74.8646 213.557 75.2969 214.125C75.7344 214.693 76.3177 214.977 77.0469 214.977C77.7812 214.977 78.3646 214.69 78.7969 214.117C79.2292 213.539 79.4453 212.732 79.4453 211.695C79.4453 210.768 79.224 210.018 78.7812 209.445C78.3438 208.867 77.7604 208.578 77.0312 208.578C76.3177 208.578 75.7422 208.862 75.3047 209.43C74.8672 209.997 74.6484 210.81 74.6484 211.867ZM87.9219 215.164C87.3594 215.826 86.5339 216.156 85.4453 216.156C84.5443 216.156 83.8568 215.896 83.3828 215.375C82.9141 214.849 82.6771 214.073 82.6719 213.047V207.547H84.1172V213.008C84.1172 214.289 84.638 214.93 85.6797 214.93C86.7839 214.93 87.5182 214.518 87.8828 213.695V207.547H89.3281V216H87.9531L87.9219 215.164ZM96.4531 213.758C96.4531 213.367 96.3047 213.065 96.0078 212.852C95.7161 212.633 95.2031 212.445 94.4688 212.289C93.7396 212.133 93.1589 211.945 92.7266 211.727C92.2995 211.508 91.9818 211.247 91.7734 210.945C91.5703 210.643 91.4688 210.284 91.4688 209.867C91.4688 209.174 91.7604 208.589 92.3438 208.109C92.9323 207.63 93.6823 207.391 94.5938 207.391C95.5521 207.391 96.3281 207.638 96.9219 208.133C97.5208 208.628 97.8203 209.26 97.8203 210.031H96.3672C96.3672 209.635 96.1979 209.294 95.8594 209.008C95.526 208.721 95.1042 208.578 94.5938 208.578C94.0677 208.578 93.6562 208.693 93.3594 208.922C93.0625 209.151 92.9141 209.451 92.9141 209.82C92.9141 210.169 93.0521 210.432 93.3281 210.609C93.6042 210.786 94.1016 210.956 94.8203 211.117C95.5443 211.279 96.1302 211.471 96.5781 211.695C97.026 211.919 97.3568 212.19 97.5703 212.508C97.7891 212.82 97.8984 213.203 97.8984 213.656C97.8984 214.411 97.5964 215.018 96.9922 215.477C96.388 215.93 95.6042 216.156 94.6406 216.156C93.9635 216.156 93.3646 216.036 92.8438 215.797C92.3229 215.557 91.9141 215.224 91.6172 214.797C91.3255 214.365 91.1797 213.898 91.1797 213.398H92.625C92.651 213.883 92.8438 214.268 93.2031 214.555C93.5677 214.836 94.0469 214.977 94.6406 214.977C95.1875 214.977 95.625 214.867 95.9531 214.648C96.2865 214.424 96.4531 214.128 96.4531 213.758ZM103.398 211.703C103.398 210.406 103.706 209.365 104.32 208.578C104.935 207.786 105.74 207.391 106.734 207.391C107.724 207.391 108.508 207.729 109.086 208.406V204H110.531V216H109.203L109.133 215.094C108.555 215.802 107.75 216.156 106.719 216.156C105.74 216.156 104.94 215.755 104.32 214.953C103.706 214.151 103.398 213.104 103.398 211.812V211.703ZM104.844 211.867C104.844 212.826 105.042 213.576 105.438 214.117C105.833 214.659 106.38 214.93 107.078 214.93C107.995 214.93 108.664 214.518 109.086 213.695V209.812C108.654 209.016 107.99 208.617 107.094 208.617C106.385 208.617 105.833 208.891 105.438 209.438C105.042 209.984 104.844 210.794 104.844 211.867ZM114.352 216H112.906V207.547H114.352V216ZM112.789 205.305C112.789 205.07 112.859 204.872 113 204.711C113.146 204.549 113.359 204.469 113.641 204.469C113.922 204.469 114.135 204.549 114.281 204.711C114.427 204.872 114.5 205.07 114.5 205.305C114.5 205.539 114.427 205.734 114.281 205.891C114.135 206.047 113.922 206.125 113.641 206.125C113.359 206.125 113.146 206.047 113 205.891C112.859 205.734 112.789 205.539 112.789 205.305ZM121.594 213.758C121.594 213.367 121.445 213.065 121.148 212.852C120.857 212.633 120.344 212.445 119.609 212.289C118.88 212.133 118.299 211.945 117.867 211.727C117.44 211.508 117.122 211.247 116.914 210.945C116.711 210.643 116.609 210.284 116.609 209.867C116.609 209.174 116.901 208.589 117.484 208.109C118.073 207.63 118.823 207.391 119.734 207.391C120.693 207.391 121.469 207.638 122.062 208.133C122.661 208.628 122.961 209.26 122.961 210.031H121.508C121.508 209.635 121.339 209.294 121 209.008C120.667 208.721 120.245 208.578 119.734 208.578C119.208 208.578 118.797 208.693 118.5 208.922C118.203 209.151 118.055 209.451 118.055 209.82C118.055 210.169 118.193 210.432 118.469 210.609C118.745 210.786 119.242 210.956 119.961 211.117C120.685 211.279 121.271 211.471 121.719 211.695C122.167 211.919 122.497 212.19 122.711 212.508C122.93 212.82 123.039 213.203 123.039 213.656C123.039 214.411 122.737 215.018 122.133 215.477C121.529 215.93 120.745 216.156 119.781 216.156C119.104 216.156 118.505 216.036 117.984 215.797C117.464 215.557 117.055 215.224 116.758 214.797C116.466 214.365 116.32 213.898 116.32 213.398H117.766C117.792 213.883 117.984 214.268 118.344 214.555C118.708 214.836 119.188 214.977 119.781 214.977C120.328 214.977 120.766 214.867 121.094 214.648C121.427 214.424 121.594 214.128 121.594 213.758ZM126.367 208.57C127.008 207.784 127.841 207.391 128.867 207.391C130.654 207.391 131.555 208.398 131.57 210.414V216H130.125V210.406C130.12 209.797 129.979 209.346 129.703 209.055C129.432 208.763 129.008 208.617 128.43 208.617C127.961 208.617 127.549 208.742 127.195 208.992C126.841 209.242 126.565 209.57 126.367 209.977V216H124.922V204H126.367V208.57Z" fill="#333B41"/>
<path d="M66.3982 97.055C66.218 96.7141 66.0378 96.4301 65.9177 96.0892C65.0768 94.1577 65.0768 92.6807 65.3771 90.806C65.6174 89.4426 65.5573 88.7609 65.1368 88.2496C64.6563 87.6815 63.9355 87.6247 62.9144 87.5111H62.7342C62.4338 87.4543 62.1335 87.4543 61.8932 87.4543C59.5506 87.3407 58.2292 87.3975 57.6285 88.2496C57.0278 89.045 57.4483 90.2379 58.2892 91.9422C58.7097 92.7943 58.8899 93.6464 59.01 94.2713C57.9889 94.3282 56.7876 94.7826 55.346 95.3507C52.4027 96.4869 48.3782 98.0775 43.4528 96.6573C37.6263 95.0099 32.7609 90.6356 30.118 88.2496C28.8566 87.1135 28.316 86.6022 27.8955 86.4886C27.2948 86.3181 26.514 86.7158 26.0935 86.943L25.8532 87.0566C25.5529 87.2839 25.1324 87.6247 24.9522 88.0224C24.5318 89.329 24.4717 91.7718 25.4928 94.4986C25.1324 94.3282 24.8922 94.2713 24.6519 94.2145C24.0512 94.1577 23.3905 94.6122 22.8499 95.1235L22.6697 95.2939C22.3694 95.5779 22.009 96.0324 22.009 96.4869C21.8888 98.5888 22.97 101.884 25.5529 104.951H25.4928C24.8922 105.065 24.3516 105.747 23.9912 106.372V106.599C23.811 106.996 23.6308 107.508 23.6908 107.962C24.2915 110.291 26.7542 113.643 30.8988 115.972C33.4216 117.392 37.2659 118.756 42.5518 118.756C44.8944 118.756 47.5373 118.472 50.4205 117.79C57.2681 116.199 63.6352 111.598 66.218 106.201C67.8398 103.02 67.8999 99.8386 66.3982 97.055ZM26.0334 88.3064C26.0334 88.3064 26.0935 88.2496 26.0935 88.1928C26.2136 88.4201 26.3938 88.7041 26.574 88.9881C28.1358 91.6581 31.5596 97.6799 39.6085 100.691C34.623 99.4977 30.178 97.055 27.5351 95.5779C27.3549 95.4643 27.1747 95.3507 26.9945 95.2939C25.7331 92.5103 25.5529 89.7835 26.0334 88.3064ZM23.1502 96.6005C23.1502 96.6005 23.1502 96.4869 23.2704 96.3733C23.4506 96.5437 23.7509 96.8845 24.0512 97.1686C26.574 99.8386 32.5206 106.144 43.3927 106.769C43.7531 106.769 44.0534 106.769 44.4138 106.769C45.495 106.769 46.6363 106.656 47.6574 106.428C47.5373 106.485 47.3571 106.485 47.237 106.542C40.4494 108.076 32.9411 106.372 28.9166 105.463C28.2559 105.292 27.7153 105.179 27.2948 105.122C24.2314 102.111 23.0301 98.5888 23.1502 96.6005ZM65.257 105.86C62.7942 110.916 56.7876 115.347 50.2403 116.824C33.5418 120.631 25.7331 111.484 24.772 107.735C24.772 107.678 24.772 107.621 24.8321 107.451C25.1324 107.565 25.4928 107.792 25.8532 108.019C29.277 110.007 37.2659 114.609 48.3782 112.052C55.7064 110.405 59.4305 105.065 61.5929 101.145C61.713 100.918 61.653 100.577 61.3526 100.463C61.1124 100.35 60.752 100.407 60.6318 100.691C58.5896 104.383 54.9856 109.496 48.0779 111.087C37.386 113.529 29.6975 109.042 26.3938 107.167C25.9133 106.883 25.5529 106.656 25.2526 106.542C25.4928 106.201 25.7331 105.974 25.8532 105.974C26.1536 105.917 27.415 106.201 28.6163 106.485C31.4995 107.167 36.1847 108.189 41.1702 108.189C43.2125 108.189 45.3749 108.019 47.4172 107.508C52.703 106.315 55.8265 103.304 58.3493 100.236C58.5295 100.009 58.4694 99.6682 58.2292 99.4977C57.9889 99.3273 57.6285 99.3841 57.4483 99.6114C57.208 99.8954 56.9077 100.236 56.6674 100.52C52.4027 104.27 48.0178 105.974 43.3326 105.69C32.9411 105.122 27.1747 99.0433 24.712 96.4301C24.3516 96.0324 24.1113 95.8052 23.871 95.5779C24.1714 95.3507 24.4116 95.2371 24.5318 95.2371C24.8321 95.2939 25.8532 95.862 26.8744 96.4301C30.3582 98.3616 36.8454 101.941 43.693 102.338C44.0534 102.338 44.3538 102.338 44.7142 102.338C47.1168 102.338 49.1591 101.884 50.9611 101.145H51.0212C51.0812 101.145 51.0812 101.088 51.1413 101.088C53.4238 100.179 55.2258 98.9297 56.7876 97.9071C57.3282 97.5662 57.8087 97.2254 58.2292 96.9413C58.4694 96.7709 58.5295 96.4869 58.4094 96.2596C58.2292 96.0324 57.9288 95.9756 57.6886 96.0892C57.208 96.3733 56.7275 96.7141 56.1869 97.055C54.6252 98.0775 52.8232 99.3273 50.5406 100.179C47.5974 101.032 44.7142 101.088 41.9511 100.293C32.821 97.7367 29.0968 91.2037 27.475 88.4201C27.2348 88.0224 27.1146 87.7384 26.9344 87.5111C27.2348 87.3975 27.415 87.3407 27.5351 87.3407C27.7754 87.4543 28.5562 88.136 29.3371 88.8745C31.98 91.2605 36.9656 95.7484 43.0323 97.4526C44.534 97.8503 45.9756 98.0207 47.297 98.0207C50.6608 98.0207 53.4238 96.9413 55.6463 96.0892C57.208 95.4643 58.5295 94.953 59.4305 95.1235H59.4906H59.5506C59.5506 95.1235 59.5506 95.1235 59.6107 95.1235C59.6708 95.1235 59.6708 95.1235 59.7308 95.0667C59.7308 95.0667 59.7909 95.0667 59.7909 95.0099C59.851 95.0099 59.851 94.953 59.911 94.953L59.9711 94.8962C59.9711 94.8962 60.0312 94.8394 60.0312 94.7826C60.0312 94.7258 60.0312 94.7258 60.0912 94.669C60.0912 94.669 60.0912 94.669 60.0912 94.6122V94.5554V94.4986C60.0312 93.8169 59.851 92.4535 59.2503 91.2037C58.95 90.5788 58.1691 88.9881 58.5295 88.5337C58.8298 88.0792 60.4516 88.136 61.8932 88.1928C62.1335 88.1928 62.3738 88.1928 62.614 88.2496H62.7942C63.5751 88.3064 64.1157 88.4201 64.2959 88.5905C64.4761 88.8177 64.4761 89.3858 64.356 90.3515C63.9956 92.3398 63.9956 94.0441 64.9566 96.2028C65.0768 96.5437 65.257 96.8845 65.4372 97.2254C66.7586 100.009 66.6986 102.849 65.257 105.86Z" fill="#333B41" stroke="#333B41" stroke-width="0.7"/>
<path d="M63.6964 104.894C63.4561 104.781 63.0957 104.894 62.9756 105.121C60.6931 109.78 55.1069 113.87 49.0401 115.233C48.7398 115.29 48.5596 115.574 48.6197 115.858C48.6797 116.085 48.92 116.256 49.1603 116.256C49.2203 116.256 49.2203 116.256 49.2804 116.256C55.7075 114.836 61.5941 110.518 63.9967 105.576C64.1169 105.349 63.9967 105.065 63.6964 104.894Z" fill="#333B41" stroke="#333B41" stroke-width="0.7"/>
<path d="M89.6255 48.0077C86.4284 47.9054 83.2819 48.8276 80.6419 50.6407C78.0019 52.4539 76.0055 55.0638 74.9418 58.0923C74.8919 58.2345 74.8049 58.3607 74.6898 58.4576C74.5748 58.5545 74.4359 58.6186 74.2877 58.6433C72.6668 58.9186 71.1971 59.7659 70.1431 61.0324C69.0891 62.299 68.5201 63.9018 68.5385 65.552C68.5569 67.2023 69.1616 68.7917 70.2436 70.0342C71.3256 71.2767 72.8139 72.0909 74.4405 72.3297C74.6026 72.3535 74.7543 72.4244 74.8767 72.5337C74.9991 72.643 75.087 72.7858 75.1294 72.9447C75.9252 75.9208 77.6403 78.5671 80.0282 80.5033C82.416 82.4395 85.3538 83.5659 88.4193 83.7209C87.7502 86.1745 87.3446 88.693 87.2096 91.2333L82.1491 90.4302C81.0822 90.2608 79.992 90.5238 79.1183 91.1613C78.2446 91.7988 77.6589 92.7585 77.4901 93.8296C77.3213 94.9006 77.5832 95.995 78.2181 96.8722C78.8531 97.7494 79.8091 98.3373 80.8759 98.5068L87.7495 99.5969C87.9445 100.666 88.1882 101.725 88.4796 102.771C86.9155 104.479 86.0475 106.715 86.0477 109.035V110.481C86.0475 110.705 85.9592 110.919 85.802 111.076C85.6449 111.234 85.4318 111.323 85.2096 111.323H84.7079C84.1132 111.323 83.5241 111.44 82.9745 111.668C82.4249 111.897 81.9255 112.231 81.5047 112.653C81.084 113.075 80.7503 113.577 80.5225 114.128C80.2948 114.68 80.1775 115.271 80.1775 115.868V117.054C80.1775 117.389 80.2434 117.721 80.3712 118.03C80.4991 118.34 80.6864 118.621 80.9226 118.858C81.1588 119.094 81.4391 119.282 81.7476 119.41C82.0561 119.538 82.3866 119.604 82.7204 119.603H114.923C119.252 119.604 123.532 118.686 127.483 116.91C131.434 115.133 134.966 112.539 137.848 109.296C142.41 104.704 145.459 98.8179 146.582 92.4318C147.273 86.885 145.773 81.2873 142.404 76.8364C139.774 73.4476 136.2 70.9195 132.137 69.5725C129.33 68.7241 126.327 68.7963 123.564 69.7788C120.801 70.7613 118.423 72.6028 116.774 75.0356C116.46 75.4967 116.241 76.0152 116.127 76.5616C116.014 77.108 116.008 77.6713 116.112 78.2197C116.215 78.7681 116.426 79.2906 116.73 79.7574C117.035 80.2241 117.429 80.6261 117.888 80.94C118.348 81.254 118.865 81.4738 119.409 81.5871C119.953 81.7004 120.515 81.7049 121.061 81.6003C121.607 81.4957 122.127 81.2839 122.592 80.9773C123.056 80.6707 123.456 80.2752 123.768 79.8134C124.395 78.8884 125.296 78.1847 126.343 77.8015C127.39 77.4183 128.53 77.3751 129.603 77.678C132.011 78.5014 134.128 80.0083 135.699 82.0159C137.667 84.637 138.567 87.9127 138.214 91.1761C137.343 95.8459 135.066 100.135 131.689 103.463C128.458 107.178 124.093 109.715 119.276 110.679C119.236 110.687 119.195 110.685 119.157 110.672C119.118 110.66 119.083 110.639 119.055 110.609C119.027 110.58 119.007 110.545 118.996 110.506C118.985 110.466 118.984 110.425 118.993 110.386C120.479 104.132 120.056 97.5742 117.78 91.5647C116.615 87.7952 114.669 84.3154 112.072 81.3527C109.474 78.39 106.283 76.0115 102.706 74.3725C102.884 73.9048 103.037 73.4281 103.166 72.9445C103.209 72.7856 103.297 72.6428 103.419 72.5335C103.542 72.4242 103.693 72.3533 103.855 72.3295C105.482 72.0903 106.97 71.276 108.052 70.0332C109.133 68.7904 109.738 67.2007 109.756 65.5504C109.774 63.9001 109.204 62.2977 108.15 61.0314C107.096 59.7651 105.626 58.9181 104.005 58.6431C103.857 58.6184 103.718 58.5543 103.603 58.4574C103.488 58.3605 103.401 58.2343 103.351 58.0921C102.342 55.2186 100.491 52.7183 98.0422 50.9188C95.5931 49.1193 92.6589 48.1046 89.6255 48.0077ZM88.6825 49.1136C91.6461 49.0181 94.5631 49.8727 97.0103 51.5536C99.4575 53.2344 101.308 55.6542 102.293 58.4619C102.409 58.7905 102.61 59.082 102.875 59.3062C103.141 59.5304 103.462 59.6791 103.804 59.7368C105.165 59.9681 106.399 60.6794 107.284 61.7425C108.169 62.8057 108.647 64.151 108.632 65.5364C108.617 66.9218 108.11 68.2565 107.203 69.3002C106.295 70.344 105.046 71.0284 103.681 71.2302C103.305 71.2852 102.954 71.4494 102.67 71.7026C102.386 71.9558 102.182 72.2868 102.084 72.6549C101.664 74.2271 100.964 75.7098 100.017 77.0311C100.145 74.4422 99.252 71.9069 97.531 69.9745C97.5115 69.948 97.4975 69.9177 97.4899 69.8856C97.4823 69.8535 97.4813 69.8203 97.4869 69.7878C97.4925 69.7554 97.5047 69.7243 97.5226 69.6967C97.5405 69.669 97.5638 69.6454 97.5912 69.6271C98.9577 68.4524 99.8346 66.8048 100.048 65.0114C100.261 63.2179 99.7944 61.4095 98.7413 59.9451C97.6882 58.4806 96.1253 57.4673 94.3626 57.1058C92.5999 56.7442 90.7662 57.0611 89.2254 57.9935C89.0021 58.1284 88.7463 58.1997 88.4856 58.1997C88.225 58.1997 87.9692 58.1284 87.7459 57.9935H87.7296C86.1888 57.0648 84.3568 56.7507 82.5964 57.1136C80.836 57.4765 79.2755 58.4899 78.2238 59.9529C77.1722 61.4159 76.7061 63.222 76.9178 65.0136C77.1295 66.8052 78.0037 68.4517 79.3671 69.6271C79.3901 69.6497 79.4084 69.6767 79.4208 69.7065C79.4333 69.7364 79.4397 69.7685 79.4397 69.8008C79.4397 69.8331 79.4333 69.865 79.4208 69.8949C79.4084 69.9247 79.3901 69.9519 79.3671 69.9745C78.1303 71.3661 77.3123 73.0814 77.0082 74.9212C76.6638 74.1923 76.3855 73.4338 76.1764 72.6549C76.0781 72.2873 75.8749 71.9566 75.5917 71.7034C75.3085 71.4503 74.9578 71.2858 74.5827 71.2302C73.2173 71.0284 71.9685 70.344 71.0609 69.3002C70.1532 68.2565 69.6464 66.9218 69.6315 65.5364C69.6166 64.151 70.0946 62.8057 70.9796 61.7425C71.8646 60.6794 73.0985 59.9681 74.4592 59.7368C74.8009 59.6785 75.121 59.5298 75.3861 59.3056C75.6513 59.0814 75.8519 58.7901 75.9672 58.4619C76.9016 55.7989 78.6156 53.4815 80.8845 51.8133C83.1535 50.1451 85.8716 49.2041 88.6825 49.1136ZM83.8154 58.0698C83.9709 58.0638 84.1266 58.0638 84.2821 58.0698C85.2973 58.1137 86.2853 58.413 87.1553 58.9401C87.5507 59.1789 88.0035 59.305 88.4649 59.305C88.9264 59.305 89.3791 59.1789 89.7745 58.9401C91.078 58.1551 92.6276 57.89 94.1165 58.1975C95.6054 58.5049 96.925 59.3623 97.8141 60.6C98.7033 61.8377 99.097 63.3655 98.9176 64.8809C98.7381 66.3962 97.9984 67.7887 96.8449 68.7826C96.7094 68.9003 96.5986 69.0438 96.519 69.205C96.4394 69.3661 96.3927 69.5418 96.3815 69.7214C96.3703 69.9009 96.3949 70.0808 96.4538 70.2507C96.5127 70.4206 96.6048 70.577 96.7246 70.7107C97.6682 71.7702 98.3403 73.0445 98.6827 74.4235C99.0252 75.8025 99.0276 77.2446 98.6899 78.6247C97.2914 80.0463 95.5952 81.1377 93.7245 81.8195C91.8538 82.5013 89.8553 82.7566 87.8741 82.5668C85.8929 82.377 83.9786 81.7468 82.2701 80.7221C80.5616 79.6974 79.1016 78.3037 77.9962 76.6423C77.9703 74.4565 78.761 72.3403 80.2122 70.7107C80.3315 70.5764 80.4229 70.4195 80.481 70.2493C80.5391 70.079 80.5628 69.8987 80.5507 69.7191C80.5386 69.5395 80.4909 69.3643 80.4105 69.2035C80.33 69.0427 80.2184 68.8996 80.0822 68.7826C79.1527 67.9856 78.4848 66.9251 78.1661 65.7404C77.8473 64.5557 77.8925 63.3019 78.2958 62.1434C78.6991 60.985 79.4416 59.9758 80.4261 59.2484C81.4105 58.5209 82.591 58.109 83.8126 58.0668L83.8154 58.0698ZM128.06 70.0955C129.33 70.0845 130.593 70.265 131.81 70.6311C135.656 71.9112 139.037 74.3068 141.528 77.5156C144.714 81.7258 146.137 87.0187 145.493 92.2665C144.402 98.4294 141.453 104.108 137.045 108.534C134.266 111.667 130.859 114.174 127.047 115.891C123.235 117.608 119.104 118.495 114.926 118.495H82.7233C82.5346 118.495 82.3477 118.458 82.1732 118.386C81.9987 118.314 81.8401 118.208 81.7065 118.074C81.5729 117.94 81.4669 117.781 81.3946 117.606C81.3223 117.431 81.2851 117.243 81.2851 117.054V115.868C81.2851 115.417 81.3737 114.97 81.5459 114.553C81.7181 114.136 81.9705 113.757 82.2886 113.438C82.6068 113.119 82.9844 112.866 83.4 112.693C83.8156 112.521 84.261 112.432 84.7107 112.432H85.2123C85.4677 112.433 85.7207 112.383 85.9567 112.285C86.1928 112.187 86.4073 112.043 86.588 111.862C86.7688 111.681 86.9122 111.466 87.0101 111.229C87.108 110.992 87.1584 110.738 87.1586 110.482V109.035C87.208 106.909 88.0839 104.887 89.5992 103.4C91.1144 101.914 93.1487 101.082 95.2671 101.082C97.3854 101.082 99.4197 101.914 100.935 103.4C102.45 104.887 103.326 106.909 103.376 109.035V111.511C103.38 111.656 103.44 111.792 103.543 111.893C103.646 111.994 103.784 112.05 103.928 112.05C104.072 112.05 104.21 111.994 104.313 111.893C104.416 111.792 104.476 111.656 104.48 111.511V109.035C104.481 107.414 104.057 105.822 103.252 104.418C102.447 103.013 101.289 101.845 99.8929 101.032C100.743 100.83 101.544 100.459 102.249 99.9412C102.953 99.4229 103.546 98.7677 103.994 98.0145C104.441 97.2614 104.733 96.4256 104.852 95.557C104.971 94.6884 104.915 93.8046 104.687 92.9581C104.096 90.7654 103.279 88.6405 102.249 86.6184C102.182 86.4874 102.066 86.3885 101.926 86.3434C101.786 86.2984 101.634 86.3108 101.504 86.378C101.373 86.4453 101.275 86.5618 101.23 86.702C101.185 86.8422 101.197 86.9947 101.264 87.1258C102.259 89.0788 103.047 91.1307 103.617 93.2483C103.852 94.1227 103.866 95.0424 103.657 95.9236C103.448 96.8047 103.023 97.6195 102.42 98.2936C101.818 98.9677 101.057 99.4797 100.207 99.7831C99.3565 100.087 98.4443 100.172 97.553 100.031L81.0533 97.411C80.2784 97.2851 79.5849 96.8558 79.1245 96.2175C78.6642 95.5792 78.4746 94.7839 78.5972 94.0055C78.7198 93.2272 79.1447 92.5293 79.7788 92.0648C80.4129 91.6003 81.2046 91.407 81.9803 91.5272L94.683 93.5449C94.8271 93.5663 94.9739 93.5297 95.0913 93.443C95.2088 93.3563 95.2873 93.2266 95.3099 93.082C95.3325 92.9375 95.2974 92.7898 95.2121 92.6712C95.1268 92.5525 94.9982 92.4725 94.8544 92.4485L88.3111 91.4095C88.4398 88.8119 88.8605 86.2371 89.5652 83.7343C92.244 83.6572 94.8493 82.8371 97.0925 81.3648C99.3356 79.8926 101.129 77.8257 102.274 75.3932C105.709 76.971 108.773 79.2594 111.265 82.1085C113.758 84.9575 115.623 88.3029 116.739 91.9257C118.946 97.7362 119.357 104.079 117.92 110.128C117.867 110.349 117.871 110.58 117.93 110.799C117.99 111.018 118.103 111.218 118.26 111.382C118.417 111.545 118.612 111.666 118.828 111.734C119.043 111.802 119.273 111.814 119.494 111.77C124.538 110.76 129.109 108.109 132.499 104.226C136.029 100.731 138.406 96.2332 139.309 91.3391C139.705 87.7784 138.728 84.2006 136.578 81.3408C134.868 79.1508 132.559 77.5091 129.933 76.617C128.634 76.2446 127.252 76.2929 125.982 76.7547C124.712 77.2164 123.62 78.0684 122.86 79.1893C122.629 79.5301 122.333 79.8217 121.99 80.0478C121.647 80.2739 121.262 80.43 120.859 80.507C120.456 80.584 120.041 80.5803 119.639 80.4965C119.237 80.4126 118.856 80.2501 118.516 80.0182C118.177 79.7863 117.886 79.4895 117.661 79.1449C117.436 78.8002 117.281 78.4145 117.204 78.0096C117.127 77.6046 117.131 77.1885 117.215 76.7849C117.298 76.3814 117.46 75.9983 117.691 75.6576C118.843 73.9586 120.388 72.5652 122.194 71.5966C124 70.628 126.013 70.1127 128.06 70.0955ZM88.9143 99.7819L92.213 100.305C91.1876 100.667 90.2341 101.209 89.3968 101.905C89.2148 101.202 89.0549 100.494 88.9174 99.7819H88.9143Z" fill="#333B41" stroke="#333B41" stroke-width="0.7"/>
<path d="M93.0679 61.6303C92.4493 61.6414 91.8601 61.8976 91.4289 62.343C90.9977 62.7885 90.7594 63.387 90.766 64.0081C90.766 64.6324 91.013 65.231 91.4527 65.6724C91.8924 66.1138 92.4888 66.3619 93.1107 66.3619C93.7325 66.3619 94.3289 66.1138 94.7686 65.6724C95.2083 65.231 95.4553 64.6324 95.4553 64.0081C95.4586 63.6933 95.399 63.381 95.28 63.0898C95.161 62.7985 94.9849 62.5341 94.7623 62.3124C94.5397 62.0907 94.275 61.916 93.984 61.7989C93.6929 61.6817 93.3814 61.6244 93.0679 61.6303ZM93.0874 62.7522C93.2532 62.7489 93.4179 62.779 93.5719 62.8407C93.7259 62.9025 93.866 62.9947 93.9838 63.1118C94.1016 63.2289 94.1949 63.3686 94.2579 63.5226C94.321 63.6766 94.3526 63.8417 94.3509 64.0081C94.351 64.1716 94.319 64.3335 94.2567 64.4846C94.1944 64.6357 94.1031 64.773 93.988 64.8886C93.8728 65.0043 93.7362 65.0959 93.5857 65.1585C93.4352 65.2211 93.274 65.2534 93.1111 65.2534C92.9483 65.2534 92.787 65.2211 92.6365 65.1585C92.4861 65.0959 92.3494 65.0043 92.2343 64.8886C92.1191 64.773 92.0278 64.6357 91.9655 64.4846C91.9033 64.3335 91.8713 64.1716 91.8713 64.0081C91.868 63.6801 91.994 63.3639 92.2217 63.1287C92.4495 62.8934 92.7607 62.7582 93.0874 62.7522Z" fill="#333B41" stroke="#333B41" stroke-width="0.7"/>
<path d="M83.7849 61.6302C83.1663 61.6414 82.5772 61.8976 82.146 62.343C81.7148 62.7884 81.4765 63.387 81.4831 64.0081C81.4742 64.3226 81.5283 64.6355 81.642 64.9287C81.7558 65.2219 81.9269 65.4893 82.1454 65.715C82.3638 65.9406 82.6251 66.1198 82.9138 66.2423C83.2025 66.3647 83.5127 66.4279 83.8261 66.4279C84.1395 66.4279 84.4498 66.3647 84.7385 66.2423C85.0272 66.1198 85.2885 65.9406 85.5069 65.715C85.7253 65.4893 85.8965 65.2219 86.0103 64.9287C86.124 64.6355 86.1781 64.3226 86.1692 64.0081C86.1725 63.6936 86.113 63.3816 85.9941 63.0905C85.8753 62.7995 85.6996 62.5352 85.4773 62.3136C85.255 62.0919 84.9907 61.9172 84.7 61.7998C84.4093 61.6825 84.0981 61.6248 83.7849 61.6302ZM83.8043 62.7522C83.9699 62.7492 84.1343 62.7795 84.2879 62.8415C84.4416 62.9034 84.5812 62.9957 84.6988 63.1128C84.8163 63.2298 84.9092 63.3694 84.9721 63.5232C85.0349 63.6769 85.0664 63.8419 85.0648 64.0081C85.069 64.174 85.0401 64.3391 84.9798 64.4936C84.9195 64.6482 84.8289 64.7891 84.7135 64.9079C84.5981 65.0268 84.4602 65.1211 84.3079 65.1856C84.1555 65.2501 83.9919 65.2833 83.8265 65.2833C83.6612 65.2833 83.4975 65.2501 83.3452 65.1856C83.1929 65.1211 83.0549 65.0268 82.9395 64.9079C82.8241 64.7891 82.7336 64.6482 82.6733 64.4936C82.6129 64.3391 82.5841 64.174 82.5883 64.0081C82.585 63.68 82.7109 63.3639 82.9387 63.1286C83.1665 62.8934 83.4776 62.7581 83.8043 62.7522Z" fill="#333B41" stroke="#333B41" stroke-width="0.7"/>
<path d="M84.4982 75.8266C84.947 76.4645 85.5418 76.9849 86.2326 77.3441C86.9233 77.7033 87.6899 77.891 88.4679 77.891C89.2459 77.891 90.0125 77.7033 90.7032 77.3441C91.394 76.9849 91.9888 76.4645 92.4377 75.8266C92.5198 75.7063 92.5514 75.5583 92.5257 75.4147C92.5 75.2712 92.4191 75.1436 92.3004 75.0595C92.1818 74.9754 92.0349 74.9417 91.8915 74.9654C91.7482 74.9892 91.62 75.0685 91.5345 75.1865C91.1878 75.6792 90.7283 76.0814 90.1947 76.3588C89.661 76.6363 89.0689 76.781 88.4679 76.781C87.867 76.781 87.2748 76.6363 86.7412 76.3588C86.2075 76.0814 85.748 75.6792 85.4013 75.1865C85.3158 75.0685 85.1876 74.9892 85.0443 74.9654C84.9009 74.9417 84.754 74.9754 84.6354 75.0595C84.5167 75.1436 84.4358 75.2712 84.4101 75.4147C84.3844 75.5583 84.416 75.7063 84.4982 75.8266Z" fill="#333B41" stroke="#333B41" stroke-width="0.7"/>
<defs>
<linearGradient id="paint0_linear_152_80" x1="-7.44304" y1="24.8889" x2="195.1" y2="114.913" gradientUnits="userSpaceOnUse">
<stop stop-color="#F9804B"/>
<stop offset="1" stop-color="#FE9013"/>
</linearGradient>
</defs>
</svg>
