<svg width="79" height="45" viewBox="0 0 79 45" fill="none" xmlns="http://www.w3.org/2000/svg">
<g filter="url(#filter0_d_126_40)">
<path d="M42.2409 36.0788C44.1789 36.0788 47.4726 34.6075 50.2324 33.1656C52.697 31.8802 55.461 30.247 58.4489 28.3101L62.5687 25.5251L64.02 24.4825C67.4283 22.0075 70.6811 19.6039 73.6868 17.336L74 17.1005L73.6668 16.8935C70.2102 14.7464 66.7557 12.6402 63.3989 10.634L59.9297 8.62241L57.5167 7.31816C54.3575 5.65028 51.46 4.26827 48.8998 3.20889C45.0806 1.62719 40.3187 0.0780726 39.3318 1.66608C38.346 3.25304 41.8468 6.83367 44.9566 9.55777C46.5709 10.9703 48.4952 12.512 50.6875 14.1484C45.9929 13.6723 40.614 13.4211 35.0565 13.4211C20.486 13.4211 5 15.2361 5 18.5992C5 21.9623 20.486 23.7763 35.0565 23.7763C40.2903 23.7763 45.4096 23.5503 49.9214 23.1226C48.3502 24.5655 46.9471 25.9318 45.7438 27.1919C42.8873 30.1808 39.7176 34.0578 40.84 35.5523C41.1174 35.9212 41.6072 36.0788 42.2409 36.0788ZM73.0489 17.1426C70.1335 19.3391 66.9911 21.6596 63.7048 24.0464L60.4363 26.3511L58.1546 27.8593C55.1825 29.7857 52.4332 31.4105 49.9844 32.6884C42.903 36.3868 41.5242 35.566 41.2709 35.2286C41.0165 34.8902 40.6151 33.3369 46.1326 27.5639C47.4789 26.1556 49.0764 24.6118 50.8819 22.9754L51.4883 22.4247L50.6739 22.5077C45.9876 22.9859 40.5867 23.2382 35.0565 23.2382C17.3993 23.2382 5.53809 20.8399 5.53809 18.5992C5.53809 16.3586 17.3993 13.9592 35.0565 13.9592C40.9861 13.9592 46.7107 14.2461 51.6113 14.7874L52.6087 14.8977L51.8005 14.3039C49.2897 12.4574 47.1058 10.7243 45.3118 9.1521C39.3035 3.89097 39.5652 2.30927 39.788 1.94984C40.0139 1.58936 41.3129 0.649797 48.6938 3.70705C51.2382 4.75907 54.121 6.13373 57.2623 7.79215L60.9008 9.78057L63.1246 11.0964C66.3689 13.0365 69.7068 15.0701 73.0489 17.1426Z" fill="#333B41"/>
<path d="M58.5889 28.5172L58.5889 28.5173L58.5849 28.5199C55.5922 30.46 52.8213 32.0974 50.3482 33.3872C48.9641 34.1103 47.4417 34.8432 46.019 35.396C44.6041 35.9457 43.2594 36.3288 42.2409 36.3288C41.5766 36.3288 40.9877 36.1647 40.6402 35.7026L40.6401 35.7025C40.2886 35.2344 40.2989 34.6137 40.4913 33.9648C40.6855 33.31 41.0811 32.5679 41.5911 31.7949C42.6129 30.2461 44.1319 28.5167 45.563 27.0192C46.6307 25.9012 47.854 24.7009 49.2109 23.4388C44.8728 23.8237 40.0154 24.0263 35.0565 24.0263C27.7631 24.0263 20.2356 23.5724 14.5264 22.696C11.6739 22.2581 9.26225 21.7129 7.55796 21.0604C6.707 20.7346 6.01685 20.3763 5.53512 19.9804C5.05422 19.5851 4.75 19.125 4.75 18.5992C4.75 18.0734 5.05422 17.6133 5.53511 17.218C6.01684 16.822 6.70699 16.4637 7.55795 16.1379C9.26224 15.4853 11.6739 14.9399 14.5264 14.5019C20.2356 13.6252 27.7631 13.1711 35.0565 13.1711C40.2743 13.1711 45.3363 13.3922 49.8255 13.8131C47.9225 12.3721 46.2346 11.0082 44.792 9.74591L44.7919 9.74582C43.2339 8.38108 41.5677 6.79309 40.4127 5.34112C39.8362 4.61638 39.3765 3.91248 39.1251 3.27762C38.8759 2.64849 38.8107 2.03125 39.1195 1.53416L39.1195 1.53412C39.4285 1.0369 40.0108 0.821461 40.6855 0.765629C41.3662 0.709292 42.2011 0.809138 43.1064 1.00447C44.9201 1.3958 47.082 2.18545 48.9954 2.97789C51.5645 4.04095 54.4692 5.42656 57.6334 7.09707L57.6356 7.09823L60.0486 8.40248L60.0486 8.40238L60.0551 8.40614L63.5243 10.4177L63.5243 10.4177L63.5272 10.4194C66.8852 12.4264 70.341 14.5333 73.7988 16.6811L73.7988 16.6812L74.132 16.8882L74.4421 17.081L74.1502 17.3004L73.8374 17.5355C73.8374 17.5355 73.8374 17.5355 73.8373 17.5356C70.8302 19.8046 67.5762 22.209 64.1669 24.6848L64.1659 24.6856L62.7145 25.7281L62.7146 25.7282L62.7087 25.7322L58.5889 28.5172ZM49.8687 32.4668L49.8688 32.4668C52.3087 31.1934 55.0508 29.573 58.0178 27.65C58.0181 27.6498 58.0184 27.6497 58.0186 27.6495L60.2952 26.1447L63.5578 23.8441C63.5583 23.8437 63.5588 23.8434 63.5593 23.843C66.7347 21.5368 69.7755 19.2926 72.6066 17.1626C69.3696 15.1574 66.1393 13.1904 62.9967 11.3112C62.9966 11.3111 62.9965 11.311 62.9963 11.3109L60.7771 9.9979L57.1456 8.01323C57.1451 8.01295 57.1446 8.01267 57.144 8.01238C54.0083 6.35699 51.1333 4.98622 48.5983 3.93808L48.5982 3.93802C44.9158 2.41274 42.7744 1.89508 41.5378 1.796C40.2981 1.69666 40.0391 2.02033 40.0001 2.08216C39.9629 2.14279 39.7884 2.5173 40.4277 3.58436C41.0654 4.64888 42.4789 6.33922 45.4765 8.96401L45.4766 8.96408C47.2639 10.5304 49.4419 12.259 51.9486 14.1025L52.7567 14.6962L53.5088 15.2488L52.5812 15.1462L51.5839 15.0359C46.6939 14.4958 40.9786 14.2092 35.0565 14.2092C26.2376 14.2092 18.8727 14.8085 13.7178 15.6854C11.1385 16.1242 9.12299 16.6308 7.75795 17.1619C7.07407 17.428 6.56732 17.6951 6.23605 17.9536C5.89822 18.2173 5.78809 18.4354 5.78809 18.5992C5.78809 18.763 5.89822 18.9811 6.23605 19.2448C6.56731 19.5033 7.07406 19.7703 7.75794 20.0363C9.12298 20.5674 11.1385 21.0738 13.7178 21.5125C18.8727 22.3891 26.2376 22.9882 35.0565 22.9882C40.5797 22.9882 45.972 22.7362 50.6485 22.259L51.463 22.176L52.2189 22.099L51.6564 22.6098L51.05 23.1605L51.0498 23.1607C49.2477 24.7939 47.6547 26.3336 46.3133 27.7367C43.5606 30.6168 42.3029 32.426 41.7623 33.5431C41.2187 34.6667 41.4291 35.0231 41.4707 35.0784L41.4708 35.0785C41.5119 35.1333 41.7951 35.435 43.0251 35.2255C44.2481 35.0171 46.3358 34.3119 49.8687 32.4668Z" stroke="#333B41" stroke-width="0.5"/>
</g>
<defs>
<filter id="filter0_d_126_40" x="0.5" y="0.5" width="78.3843" height="44.0789" filterUnits="userSpaceOnUse" color-interpolation-filters="sRGB">
<feFlood flood-opacity="0" result="BackgroundImageFix"/>
<feColorMatrix in="SourceAlpha" type="matrix" values="0 0 0 0 0 0 0 0 0 0 0 0 0 0 0 0 0 0 127 0" result="hardAlpha"/>
<feOffset dy="4"/>
<feGaussianBlur stdDeviation="2"/>
<feComposite in2="hardAlpha" operator="out"/>
<feColorMatrix type="matrix" values="0 0 0 0 0 0 0 0 0 0 0 0 0 0 0 0 0 0 0.25 0"/>
<feBlend mode="normal" in2="BackgroundImageFix" result="effect1_dropShadow_126_40"/>
<feBlend mode="normal" in="SourceGraphic" in2="effect1_dropShadow_126_40" result="shape"/>
</filter>
</defs>
</svg>
